<svg height="88.30090456797122" width="370" style="width: 370px; height: 88.3009px; position: absolute; top: 50%; left: 50%; transform: translate(-50%, -50%) scale(1); z-index: 0; cursor: pointer; overflow: visible;"><defs id="SvgjsDefs1001"></defs><g id="SvgjsG1007" featurekey="Df7oLJ-0" transform="matrix(1.7987921971773497,0,0,1.7987921971773497,290.02749664896766,-0.8184503124787406)" fill="#f58e3b"><g xmlns="http://www.w3.org/2000/svg"><path fill="#f58e3b" d="M25,14.971c-1.621,0-2.938-1.316-2.938-2.938S23.378,9.097,25,9.097c1.62,0,2.938,1.315,2.938,2.937   S26.619,14.971,25,14.971z"></path><path fill="#f58e3b" d="M25,32.258c-1.621,0-2.938-1.317-2.938-2.937c0-1.625,1.317-2.938,2.938-2.938   c1.62,0,2.938,1.313,2.938,2.938C27.938,30.94,26.619,32.258,25,32.258z"></path><path fill="#f58e3b" d="M25,40.899c-1.621,0-2.938-1.314-2.938-2.936c0-1.622,1.317-2.938,2.938-2.938   c1.62,0,2.938,1.315,2.938,2.938C27.938,39.585,26.619,40.899,25,40.899z"></path><path fill="#f58e3b" d="M25,49.544c-1.621,0-2.938-1.316-2.938-2.939c0-1.619,1.317-2.936,2.938-2.936   c1.62,0,2.938,1.316,2.938,2.936C27.938,48.228,26.619,49.544,25,49.544z"></path><path fill="#f58e3b" d="M25,6.328c-1.621,0-2.938-1.314-2.938-2.937c0-1.624,1.317-2.936,2.938-2.936   c1.62,0,2.938,1.312,2.938,2.936C27.938,5.014,26.619,6.328,25,6.328z"></path><path fill="#f58e3b" d="M33.455,14.971c-1.625,0-2.941-1.316-2.941-2.938s1.316-2.937,2.941-2.937c1.621,0,2.936,1.315,2.936,2.937   S35.076,14.971,33.455,14.971z"></path><circle fill="#f58e3b" cx="16.879" cy="12.034" r="2.937"></circle><g><path fill="#f58e3b" d="M25,23.612c-1.621,0-2.938-1.313-2.938-2.936s1.317-2.938,2.938-2.938c1.62,0,2.938,1.316,2.938,2.938    S26.619,23.612,25,23.612z"></path><path fill="#f58e3b" d="M41.518,23.612c-1.621,0-2.934-1.313-2.934-2.936s1.313-2.938,2.934-2.938    c1.623,0,2.941,1.316,2.941,2.938S43.141,23.612,41.518,23.612z"></path><circle fill="#f58e3b" cx="33.26" cy="20.675" r="2.937"></circle><circle fill="#f58e3b" cx="8.481" cy="20.675" r="2.937"></circle><path fill="#f58e3b" d="M16.737,23.612c-1.62,0-2.934-1.313-2.934-2.936s1.313-2.938,2.934-2.938c1.624,0,2.94,1.316,2.94,2.938    S18.361,23.612,16.737,23.612z"></path></g></g></g><g id="SvgjsG1008" featurekey="Ua4uQk-0" transform="matrix(4.510309145318579,0,0,4.510309145318579,-5.376707488678192e-7,-12.010306994635588)" fill="#f58e3b"><path d="M1.48 4.880000000000001 c0.8 0 1.46 0.66 1.46 1.48 l0 13.04 c0 0.32 -0.26 0.6 -0.6 0.6 s-0.62 -0.28 -0.62 -0.6 l0 -13.04 c0 -0.14 -0.1 -0.26 -0.24 -0.26 s-0.26 0.12 -0.26 0.26 l0 6.08 c0 0.34 -0.28 0.6 -0.62 0.6 c-0.32 0 -0.6 -0.26 -0.6 -0.6 l0 -6.08 c0 -0.82 0.66 -1.48 1.48 -1.48 z M6.28 5.359999999999999 c1.62 -0.94 3.72 -0.4 4.78 1.24 l7.18 11.18 c0.42 0.7 0.18 1.64 -0.52 2.04 c-0.62 0.34 -1.5 0.28 -2 -0.54 l-7.14 -11.08 c-0.14 -0.22 -0.48 -0.5 -0.82 -0.3 c-0.16 0.1 -0.28 0.28 -0.28 0.48 l0 11.02 c0 0.32 -0.28 0.6 -0.6 0.6 c-0.34 0 -0.62 -0.28 -0.62 -0.6 l0 -11.02 c0 -0.64 0.34 -1.22 0.9 -1.54 c0.94 -0.54 1.96 -0.04 2.44 0.7 l7.14 11.08 c0.08 0.14 0.2 0.26 0.38 0.16 s0.14 -0.28 0.06 -0.38 l-7.14 -11.14 c-0.7 -1.1 -2.06 -1.48 -3.14 -0.86 c-0.7 0.42 -1.14 1.16 -1.14 1.96 l0 11.04 c0 0.32 -0.28 0.6 -0.62 0.6 c-0.32 0 -0.6 -0.28 -0.6 -0.6 l0 -10.96 c-0.02 -1.26 0.64 -2.46 1.74 -3.08 z M16.98 4.9 c0.82 0 1.48 0.66 1.48 1.46 l0 8.58 c0 0.34 -0.28 0.6 -0.6 0.6 c-0.34 0 -0.62 -0.26 -0.62 -0.6 l0 -8.58 c0 -0.14 -0.12 -0.26 -0.26 -0.26 s-0.24 0.12 -0.24 0.26 l0 5.74 c0 0.34 -0.28 0.62 -0.62 0.62 s-0.6 -0.28 -0.6 -0.62 l0 -5.74 c0 -0.8 0.66 -1.46 1.46 -1.46 z M23.56 4.880000000000001 l7.42 0 c0.8 0 1.46 0.66 1.46 1.46 s-0.62 1.48 -1.42 1.48 l-7.46 0 c-0.3 0 -0.56 0.24 -0.56 0.56 c0 0.3 0.26 0.56 0.56 0.56 c0.34 0 0.62 0.26 0.62 0.6 s-0.28 0.62 -0.62 0.62 c-0.98 0 -1.76 -0.8 -1.76 -1.78 s0.78 -1.78 1.76 -1.78 l7.42 0 c0.14 0 0.24 -0.12 0.24 -0.26 s-0.1 -0.24 -0.24 -0.24 l-7.42 0 c-1.26 0 -2.28 1.02 -2.28 2.28 s1.02 2.28 2.28 2.28 l5.38 0 c0.98 0 1.78 0.8 1.78 1.8 c0 0.98 -0.8 1.76 -1.78 1.76 l-5.38 0 c-1.26 0 -2.28 1.02 -2.28 2.28 s1.02 2.28 2.28 2.28 l8.26 0 c0.34 0 0.62 0.28 0.62 0.62 s-0.28 0.6 -0.62 0.6 l-8.26 0 c-1.94 0 -3.5 -1.56 -3.5 -3.5 c0 -1.92 1.56 -3.5 3.5 -3.5 l5.38 0 c0.32 0 0.56 -0.24 0.56 -0.54 c0 -0.34 -0.24 -0.58 -0.56 -0.58 l-5.38 0 c-1.92 0 -3.5 -1.58 -3.5 -3.5 c0 -1.94 1.58 -3.5 3.5 -3.5 z M23.56 14.74 l5.38 0 c0.34 0 0.62 0.26 0.62 0.6 s-0.28 0.62 -0.62 0.62 l-5.38 0 c-0.3 0 -0.56 0.24 -0.56 0.54 c0 0.32 0.26 0.56 0.56 0.56 c0.34 0 0.6 0.28 0.6 0.62 c0 0.32 -0.26 0.6 -0.6 0.6 c-0.98 0 -1.78 -0.8 -1.78 -1.78 s0.8 -1.76 1.78 -1.76 z M37.54 4.880000000000001 l7.42 0 c0.8 0 1.46 0.66 1.46 1.46 s-0.62 1.48 -1.42 1.48 l-7.46 0 c-0.3 0 -0.56 0.24 -0.56 0.56 c0 0.3 0.26 0.56 0.56 0.56 c0.34 0 0.62 0.26 0.62 0.6 s-0.28 0.62 -0.62 0.62 c-0.98 0 -1.76 -0.8 -1.76 -1.78 s0.78 -1.78 1.76 -1.78 l7.42 0 c0.14 0 0.24 -0.12 0.24 -0.26 s-0.1 -0.24 -0.24 -0.24 l-7.42 0 c-1.26 0 -2.28 1.02 -2.28 2.28 s1.02 2.28 2.28 2.28 l5.38 0 c0.98 0 1.78 0.8 1.78 1.8 c0 0.98 -0.8 1.76 -1.78 1.76 l-5.38 0 c-1.26 0 -2.28 1.02 -2.28 2.28 s1.02 2.28 2.28 2.28 l8.26 0 c0.34 0 0.62 0.28 0.62 0.62 s-0.28 0.6 -0.62 0.6 l-8.26 0 c-1.94 0 -3.5 -1.56 -3.5 -3.5 c0 -1.92 1.56 -3.5 3.5 -3.5 l5.38 0 c0.32 0 0.56 -0.24 0.56 -0.54 c0 -0.34 -0.24 -0.58 -0.56 -0.58 l-5.38 0 c-1.92 0 -3.5 -1.58 -3.5 -3.5 c0 -1.94 1.58 -3.5 3.5 -3.5 z M37.54 14.74 l5.38 0 c0.34 0 0.62 0.26 0.62 0.6 s-0.28 0.62 -0.62 0.62 l-5.38 0 c-0.3 0 -0.56 0.24 -0.56 0.54 c0 0.32 0.26 0.56 0.56 0.56 c0.34 0 0.6 0.28 0.6 0.62 c0 0.32 -0.26 0.6 -0.6 0.6 c-0.98 0 -1.78 -0.8 -1.78 -1.78 s0.8 -1.76 1.78 -1.76 z M54.519999999999996 4.9 c4.18 0 7.56 3.38 7.56 7.54 c0 4.18 -3.38 7.56 -7.56 7.56 l-4.36 0 c-1.18 0 -2.14 -0.96 -2.14 -2.14 l0 -10.68 c0 -0.32 0.28 -0.6 0.6 -0.6 c0.34 0 0.62 0.28 0.62 0.6 l0 10.68 c0 0.52 0.4 0.92 0.92 0.92 l4.36 0 c3.5 0 6.34 -2.84 6.34 -6.34 c0 -3.48 -2.84 -6.34 -6.34 -6.34 c-0.32 0 -0.6 -0.26 -0.6 -0.6 s0.28 -0.6 0.6 -0.6 z M50.31999999999999 6.58 l4.2 0 c3.24 0 5.88 2.64 5.88 5.86 c0 3.24 -2.64 5.88 -5.88 5.88 c-0.32 0 -0.6 -0.28 -0.6 -0.62 s0.28 -0.6 0.6 -0.6 c2.56 0 4.66 -2.1 4.66 -4.66 s-2.1 -4.64 -4.66 -4.64 l-3.58 0 l0 9.9 c0 0.34 -0.28 0.62 -0.62 0.62 s-0.6 -0.28 -0.6 -0.62 l0 -10.52 c0 -0.32 0.26 -0.6 0.6 -0.6 z"></path></g></svg>